<svg width="86" height="78" viewBox="0 0 86 78" fill="none" xmlns="http://www.w3.org/2000/svg">
<ellipse cx="80.5" cy="49.5" rx="5.5" ry="5.5" transform="rotate(-90 80.5 49.5)" fill="#2A333B"/>
<ellipse cx="80.5" cy="28.5" rx="5.5" ry="5.5" transform="rotate(-90 80.5 28.5)" fill="#2A333B"/>
<path d="M4.928 62V17.2H21.312C24.4053 17.2 27.104 17.6907 29.408 18.672C31.7333 19.6533 33.536 21.1467 34.816 23.152C36.096 25.1573 36.736 27.696 36.736 30.768C36.736 34.0533 36.032 36.6667 34.624 38.608C33.2373 40.528 31.4027 42.0533 29.12 43.184L39.232 62H30.08L21.44 45.36C21.376 45.36 21.3227 45.36 21.28 45.36C21.2373 45.36 21.184 45.36 21.12 45.36H13.12V62H4.928ZM13.12 38.512H19.136C22.5067 38.512 24.8533 37.8293 26.176 36.464C27.4987 35.0773 28.16 33.328 28.16 31.216C28.16 28.976 27.5093 27.2267 26.208 25.968C24.9067 24.688 22.656 24.048 19.456 24.048H13.12V38.512ZM41.1505 62V17.2H69.8225V25.136H49.5345V34.672H65.2785V42.608H49.5345V54.064H70.4625V62H41.1505Z" fill="#2A333B"/>
</svg>
