<svg xmlns="http://www.w3.org/2000/svg" viewBox="0 0 32 32"><path d="M20 16l-5.758-2.368L9 16v10.834A1.166 1.166 0 0 0 10.167 28h18.667A1.166 1.166 0 0 0 30 26.834V22z" fill="#185c37"/><path d="M20 4h-9.833A1.167 1.167 0 0 0 9 5.167V10l11 6 5 2.368L30 16v-6z" fill="#21a366"/><path d="M28.834 4H20v6h10V5.167A1.166 1.166 0 0 0 28.834 4z" fill="#33c481"/><path fill="#107c41" d="M9 10h11v6H9zm11 6h10v6H20z"/><path d="M17 11v11.83A1.178 1.178 0 0 1 15.83 24H9V10h7a1 1 0 0 1 1 1z" opacity=".5"/><rect x="2.001" y="9" width="13.999" height="13.999" rx="1.167" fill="#107c41"/><path d="M5.092 20.375l2.831-4.387-2.593-4.363h2.087l1.415 2.789q.195.4.269.591h.018c.094-.211.191-.416.293-.616l1.513-2.764h1.916l-2.66 4.338 2.727 4.412H10.87l-1.635-3.063a2.569 2.569 0 0 1-.2-.409h-.02a1.88 1.88 0 0 1-.189.4l-1.684 3.072z" fill="#fff"/></svg>