<svg xmlns="http://www.w3.org/2000/svg" viewBox="0 0 32 32"><path d="M4 15.923L19 18 17 3A12.962 12.962 0 0 0 4 15.923z" fill="#ed6c47"/><path d="M30 16A13.027 13.027 0 0 0 17 3v13l6 1z" fill="#ff8f6b"/><path d="M30 16a13 13 0 0 1-26 0z" fill="#d35230"/><path d="M17 11a1 1 0 0 0-1-1H5.474a12.928 12.928 0 0 0-1 2.543v6.914A12.954 12.954 0 0 0 6.767 24h9.066A1.17 1.17 0 0 0 17 22.833z" opacity=".5"/><path d="M17 11a1 1 0 0 0-1-1H5.474a12.948 12.948 0 0 0 1.293 14h9.066A1.17 1.17 0 0 0 17 22.833z" opacity=".1"/><rect x="2" y="9" width="14" height="14" rx="1.167" fill="#c43e1c"/><path d="M9.194 11.4a3.853 3.853 0 0 1 2.545.744 2.658 2.658 0 0 1 .883 2.154 3.981 3.981 0 0 1-.436 1.872 2.933 2.933 0 0 1-1.242 1.1 4.224 4.224 0 0 1-1.867.391H7.311v3.02H5.5V11.4zm-1.883 4.646H8.87a2.026 2.026 0 0 0 1.378-.41 1.672 1.672 0 0 0 .466-1.269q0-1.533-1.786-1.533H7.311z" fill="#fff"/></svg>