<svg width="24" height="24" viewBox="0 0 24 24" fill="none" xmlns="http://www.w3.org/2000/svg">
<path d="M8.25 23.25H18.75M11.25 5.25H21.75C22.1478 5.25 22.5294 5.40804 22.8107 5.68934C23.092 5.97064 23.25 6.35218 23.25 6.75V17.25C23.25 17.6478 23.092 18.0294 22.8107 18.3107C22.5294 18.592 22.1478 18.75 21.75 18.75H5.25C4.85218 18.75 4.47064 18.592 4.18934 18.3107C3.90804 18.0294 3.75 17.6478 3.75 17.25V15.75H23.25M16.5 23.25H10.5L11.25 18.75H15.75L16.5 23.25Z" stroke="url(#paint0_linear_45_3)" stroke-width="1.5" stroke-linecap="round" stroke-linejoin="round"/>
<path d="M0.75 9.75H8.25M2.25 0.75H6.75C6.75 0.75 8.25 0.75 8.25 2.25V11.25C8.25 11.25 8.25 12.75 6.75 12.75H2.25C2.25 12.75 0.75 12.75 0.75 11.25V2.25C0.75 2.25 0.75 0.75 2.25 0.75Z" stroke="url(#paint1_linear_45_3)" stroke-width="1.5" stroke-linecap="round" stroke-linejoin="round"/>
<defs>
<linearGradient id="paint0_linear_45_3" x1="13.5" y1="5.25" x2="13.5" y2="23.25" gradientUnits="userSpaceOnUse">
<stop stop-color="#219184"/>
<stop offset="1" stop-color="#68BDCC"/>
</linearGradient>
<linearGradient id="paint1_linear_45_3" x1="4.5" y1="0.75" x2="4.5" y2="12.75" gradientUnits="userSpaceOnUse">
<stop stop-color="#219184"/>
<stop offset="1" stop-color="#68BDCC"/>
</linearGradient>
</defs>
</svg>
