<svg xmlns="http://www.w3.org/2000/svg" viewBox="0 0 32 32"><path d="M28.833 4H10.167A1.168 1.168 0 0 0 9 5.167V10l10.5 1.625L30 10V5.167A1.168 1.168 0 0 0 28.833 4z" fill="#41a5ee"/><path fill="#2b7cd3" d="M30 10H9v6l10.5 2L30 16v-6z"/><path fill="#185abd" d="M30 16H9v6l10.5 2L30 22v-6z"/><path d="M30 22H9v4.833A1.168 1.168 0 0 0 10.167 28h18.666A1.168 1.168 0 0 0 30 26.833V22z" fill="#103f91"/><path d="M17 11v11.83A1.178 1.178 0 0 1 15.83 24H9V10h7a1 1 0 0 1 1 1z" opacity=".5"/><rect x="2" y="9" width="14" height="14" rx="1.167" fill="#185abd"/><path d="M12.456 20.375h-1.575l-1.837-6.037-1.925 6.037H5.544l-1.75-8.75h1.575l1.225 6.125 1.837-5.95h1.313l1.75 5.95 1.225-6.125h1.487z" fill="#fff"/></svg>